<svg width="96" height="96" viewBox="0 0 96 96" fill="none" xmlns="http://www.w3.org/2000/svg">
<rect width="96" height="96" rx="48" fill="white"/>
<rect width="96" height="96" rx="45" fill="white"/>
<mask id="path-3-inside-1_1219_1259" fill="white">
<path d="M71.3784 27.8072C71.3186 27.0988 70.7219 26.556 70.0109 26.563H59.6174V22.6243C59.6174 16.2042 54.4126 11 47.9931 11C41.573 11 36.3688 16.2042 36.3688 22.6243V26.563H25.9753C25.2675 26.5657 24.6766 27.1031 24.6077 27.8072L21.0248 68.9986C20.8619 70.9084 21.5072 72.7995 22.8048 74.2114C24.1018 75.6228 25.9315 76.4257 27.8487 76.4241H68.1508C70.068 76.4257 71.8977 75.6228 73.1947 74.2114C74.4923 72.7995 75.1382 70.9084 74.9752 68.9986L71.3784 27.8072ZM39.1039 22.6243C39.1039 17.715 43.0837 13.7351 47.9931 13.7351C52.9024 13.7351 56.8822 17.715 56.8822 22.6243V26.563H39.1039V22.6243ZM71.1733 72.3625C70.3998 73.214 69.3009 73.6964 68.1508 73.689H27.8348C26.6847 73.6895 25.5874 73.2071 24.8096 72.3598C24.0324 71.5121 23.6461 70.3769 23.746 69.231L27.2194 29.2981H36.3688V37.8315C34.1694 38.5084 32.796 40.6916 33.1384 42.9674C33.4803 45.2425 35.4355 46.9253 37.7363 46.9253C40.0371 46.9253 41.9918 45.2425 42.3342 42.9674C42.6761 40.6916 41.3027 38.5084 39.1039 37.8315V29.2842H56.8822V37.8315C54.6829 38.5084 53.3095 40.6916 53.6519 42.9674C53.9938 45.2425 55.949 46.9253 58.2498 46.9253C60.5506 46.9253 62.5053 45.2425 62.8477 42.9674C63.1896 40.6916 61.8161 38.5084 59.6174 37.8315V29.2842H68.7528L72.2262 69.2171C72.3384 70.3678 71.9554 71.5115 71.1733 72.3625V72.3625ZM37.5312 40.3754C37.6674 40.3936 37.8052 40.3936 37.9415 40.3754C38.9527 40.4844 39.7027 41.3658 39.6482 42.3813C39.5932 43.3974 38.7535 44.1934 37.7363 44.1934C36.7187 44.1934 35.8789 43.3974 35.8244 42.3813C35.7699 41.3658 36.5194 40.4844 37.5312 40.3754ZM58.0447 40.3754C58.1809 40.3936 58.3187 40.3936 58.4549 40.3754C59.4662 40.4844 60.2162 41.3658 60.1617 42.3813C60.1067 43.3974 59.2669 44.1934 58.2498 44.1934C57.2321 44.1934 56.3924 43.3974 56.3379 42.3813C56.2834 41.3658 57.0329 40.4844 58.0447 40.3754V40.3754Z"/>
</mask>
<path d="M71.3784 27.8072C71.3186 27.0988 70.7219 26.556 70.0109 26.563H59.6174V22.6243C59.6174 16.2042 54.4126 11 47.9931 11C41.573 11 36.3688 16.2042 36.3688 22.6243V26.563H25.9753C25.2675 26.5657 24.6766 27.1031 24.6077 27.8072L21.0248 68.9986C20.8619 70.9084 21.5072 72.7995 22.8048 74.2114C24.1018 75.6228 25.9315 76.4257 27.8487 76.4241H68.1508C70.068 76.4257 71.8977 75.6228 73.1947 74.2114C74.4923 72.7995 75.1382 70.9084 74.9752 68.9986L71.3784 27.8072ZM39.1039 22.6243C39.1039 17.715 43.0837 13.7351 47.9931 13.7351C52.9024 13.7351 56.8822 17.715 56.8822 22.6243V26.563H39.1039V22.6243ZM71.1733 72.3625C70.3998 73.214 69.3009 73.6964 68.1508 73.689H27.8348C26.6847 73.6895 25.5874 73.2071 24.8096 72.3598C24.0324 71.5121 23.6461 70.3769 23.746 69.231L27.2194 29.2981H36.3688V37.8315C34.1694 38.5084 32.796 40.6916 33.1384 42.9674C33.4803 45.2425 35.4355 46.9253 37.7363 46.9253C40.0371 46.9253 41.9918 45.2425 42.3342 42.9674C42.6761 40.6916 41.3027 38.5084 39.1039 37.8315V29.2842H56.8822V37.8315C54.6829 38.5084 53.3095 40.6916 53.6519 42.9674C53.9938 45.2425 55.949 46.9253 58.2498 46.9253C60.5506 46.9253 62.5053 45.2425 62.8477 42.9674C63.1896 40.6916 61.8161 38.5084 59.6174 37.8315V29.2842H68.7528L72.2262 69.2171C72.3384 70.3678 71.9554 71.5115 71.1733 72.3625V72.3625ZM37.5312 40.3754C37.6674 40.3936 37.8052 40.3936 37.9415 40.3754C38.9527 40.4844 39.7027 41.3658 39.6482 42.3813C39.5932 43.3974 38.7535 44.1934 37.7363 44.1934C36.7187 44.1934 35.8789 43.3974 35.8244 42.3813C35.7699 41.3658 36.5194 40.4844 37.5312 40.3754ZM58.0447 40.3754C58.1809 40.3936 58.3187 40.3936 58.4549 40.3754C59.4662 40.4844 60.2162 41.3658 60.1617 42.3813C60.1067 43.3974 59.2669 44.1934 58.2498 44.1934C57.2321 44.1934 56.3924 43.3974 56.3379 42.3813C56.2834 41.3658 57.0329 40.4844 58.0447 40.3754V40.3754Z" fill="#29A867"/>
<path d="M71.3784 27.8072L-846.197 105.31L-846.087 106.61L-845.974 107.91L71.3784 27.8072ZM70.0109 26.563V947.406H74.5077L79.0043 947.362L70.0109 26.563ZM59.6174 26.563H-861.225V947.406H59.6174V26.563ZM36.3688 26.563V947.406H957.211V26.563H36.3688ZM25.9753 26.563V-894.28H24.2379L22.5005 -894.273L25.9753 26.563ZM24.6077 27.8072L-891.856 -61.8923L-892.34 -56.9427L-892.771 -51.9882L24.6077 27.8072ZM21.0248 68.9986L-896.354 -10.7967L-896.42 -10.0376L-896.485 -9.27839L21.0248 68.9986ZM22.8048 74.2114L700.819 -548.884L700.814 -548.89L700.808 -548.895L22.8048 74.2114ZM27.8487 76.4241V-844.418H27.4639L27.0791 -844.418L27.8487 76.4241ZM68.1508 76.4241L68.9204 -844.418L68.5356 -844.418H68.1508V76.4241ZM73.1947 74.2114L-604.809 -548.895L-604.814 -548.89L-604.819 -548.884L73.1947 74.2114ZM74.9752 68.9986L992.485 -9.27844L992.407 -10.1912L992.327 -11.1038L74.9752 68.9986ZM56.8822 26.563V947.406H977.725V26.563H56.8822ZM39.1039 26.563H-881.739V947.406H39.1039V26.563ZM68.1508 73.689L74.1384 -847.134L71.1446 -847.154H68.1508V73.689ZM27.8348 73.689V-847.154H27.621L27.4072 -847.153L27.8348 73.689ZM24.8096 72.3598L-653.94 694.654L-653.736 694.877L-653.531 695.099L24.8096 72.3598ZM23.746 69.231L941.109 149.206L941.117 149.116L941.125 149.025L23.746 69.231ZM27.2194 29.2981V-891.544H-817.004L-890.159 -50.4963L27.2194 29.2981ZM36.3688 29.2981H957.211V-891.544H36.3688V29.2981ZM36.3688 37.8315L307.221 917.94L957.211 717.906V37.8315H36.3688ZM33.1384 42.9674L943.757 -93.8713L943.744 -93.9601L943.73 -94.049L33.1384 42.9674ZM42.3342 42.9674L952.921 180.015L952.939 179.895L952.958 179.775L42.3342 42.9674ZM39.1039 37.8315H-881.739V717.857L-231.808 917.921L39.1039 37.8315ZM39.1039 29.2842V-891.558H-881.739V29.2842H39.1039ZM56.8822 29.2842H977.725V-891.558H56.8822V29.2842ZM56.8822 37.8315L327.734 917.94L977.725 717.906V37.8315H56.8822ZM53.6519 42.9674L964.27 -93.8713L964.257 -93.9601L964.244 -94.049L53.6519 42.9674ZM62.8477 42.9674L973.435 180.015L973.453 179.895L973.471 179.775L62.8477 42.9674ZM59.6174 37.8315H-861.225V717.857L-211.295 917.921L59.6174 37.8315ZM59.6174 29.2842V-891.558H-861.225V29.2842H59.6174ZM68.7528 29.2842L986.132 -50.5103L912.976 -891.558H68.7528V29.2842ZM72.2262 69.2171L-845.153 149.012L-844.737 153.793L-844.271 158.569L72.2262 69.2171ZM71.1733 72.3625L-606.834 -550.74L-608.636 -548.779L-610.427 -546.808L71.1733 72.3625ZM37.5312 40.3754L159.234 -872.389L49.2439 -887.055L-61.0811 -875.172L37.5312 40.3754ZM37.9415 40.3754L136.605 -875.166L26.2547 -887.058L-83.7611 -872.389L37.9415 40.3754ZM39.6482 42.3813L959.144 92.1753L959.156 91.9472L959.168 91.7191L39.6482 42.3813ZM35.8244 42.3813L955.346 -6.93059L955.345 -6.94346L955.344 -6.95634L35.8244 42.3813ZM58.4549 40.3754L157.119 -875.166L46.7682 -887.058L-63.2476 -872.389L58.4549 40.3754ZM60.1617 42.3813L979.657 92.1753L979.669 91.9472L979.682 91.7191L60.1617 42.3813ZM56.3379 42.3813L975.859 -6.93059L975.858 -6.94346L975.858 -6.95634L56.3379 42.3813ZM988.954 -49.6954C948.296 -531.056 543.3 -898.946 61.0174 -894.236L79.0043 947.362C-401.856 952.058 -805.659 585.254 -846.197 105.31L988.954 -49.6954ZM70.0109 -894.28H59.6174V947.406H70.0109V-894.28ZM980.46 26.563V22.6243H-861.225V26.563H980.46ZM980.46 22.6243C980.46 -492.39 562.952 -909.843 47.9931 -909.843V931.843C-454.127 931.843 -861.225 524.799 -861.225 22.6243H980.46ZM47.9931 -909.843C-466.994 -909.843 -884.474 -492.363 -884.474 22.6243H957.211C957.211 524.772 550.14 931.843 47.9931 931.843V-909.843ZM-884.474 22.6243V26.563H957.211V22.6243H-884.474ZM36.3688 -894.28H25.9753V947.406H36.3688V-894.28ZM22.5005 -894.273C-450.123 -892.49 -845.705 -533.419 -891.856 -61.8923L941.071 117.507C895.058 587.625 500.658 945.621 29.4501 947.399L22.5005 -894.273ZM-892.771 -51.9882L-896.354 -10.7967L938.403 148.794L941.986 107.602L-892.771 -51.9882ZM-896.485 -9.27839C-918.568 249.567 -831.105 505.914 -655.199 697.318L700.808 -548.895C874.119 -360.315 960.292 -107.75 938.534 147.276L-896.485 -9.27839ZM-655.209 697.307C-479.403 888.608 -231.36 997.484 28.6184 997.266L27.0791 -844.418C283.223 -844.632 527.607 -737.363 700.819 -548.884L-655.209 697.307ZM27.8487 997.267H68.1508V-844.418H27.8487V997.267ZM67.3811 997.266C327.36 997.484 575.403 888.608 751.209 697.307L-604.819 -548.884C-431.607 -737.363 -187.224 -844.632 68.9204 -844.418L67.3811 997.266ZM751.198 697.318C926.982 506.048 1014.58 249.747 992.485 -9.27844L-842.534 147.276C-864.307 -107.93 -777.997 -360.449 -604.809 -548.895L751.198 697.318ZM992.327 -11.1038L988.73 -52.2952L-845.974 107.91L-842.377 149.101L992.327 -11.1038ZM959.946 22.6243C959.946 526.282 551.651 934.578 47.9931 934.578V-907.107C-465.484 -907.107 -881.739 -490.852 -881.739 22.6243H959.946ZM47.9931 934.578C-455.665 934.578 -863.96 526.282 -863.96 22.6243H977.725C977.725 -490.853 561.469 -907.107 47.9931 -907.107V934.578ZM-863.96 22.6243V26.563H977.725V22.6243H-863.96ZM56.8822 -894.28H39.1039V947.406H56.8822V-894.28ZM959.946 26.563V22.6243H-881.739V26.563H959.946ZM-610.427 -546.808C-435.4 -739.482 -186.55 -848.829 74.1384 -847.134L62.1631 994.512C325.151 996.222 576.2 885.91 752.774 691.533L-610.427 -546.808ZM68.1508 -847.154H27.8348V994.531H68.1508V-847.154ZM27.4072 -847.153C284.555 -847.273 529.613 -739.412 703.151 -550.38L-653.531 695.099C-478.438 885.826 -231.186 994.652 28.2625 994.531L27.4072 -847.153ZM703.559 -549.934C877.05 -360.704 963.456 -107.125 941.109 149.206L-893.617 -10.7442C-916.164 247.879 -828.986 503.728 -653.94 694.654L703.559 -549.934ZM941.125 149.025L944.598 109.093L-890.159 -50.4963L-893.633 -10.5635L941.125 149.025ZM27.2194 950.141H36.3688V-891.544H27.2194V950.141ZM-884.474 29.2981V37.8315H957.211V29.2981H-884.474ZM-234.483 -842.277C-672.189 -707.573 -945.608 -272.965 -877.453 179.984L943.73 -94.049C1011.2 354.349 740.528 784.59 307.221 917.94L-234.483 -842.277ZM-877.48 179.806C-809.391 632.92 -420.107 967.768 37.7363 967.768V-873.917C490.978 -873.917 876.351 -542.435 943.757 -93.8713L-877.48 179.806ZM37.7363 967.768C495.749 967.768 884.777 632.787 952.921 180.015L-868.253 -94.0804C-800.793 -542.302 -415.675 -873.917 37.7363 -873.917V967.768ZM952.958 179.775C1020.97 -272.958 747.737 -707.517 310.016 -842.258L-231.808 917.921C-665.132 784.534 -935.621 354.342 -868.289 -93.8399L952.958 179.775ZM959.946 37.8315V29.2842H-881.739V37.8315H959.946ZM39.1039 950.127H56.8822V-891.558H39.1039V950.127ZM-863.96 29.2842V37.8315H977.725V29.2842H-863.96ZM-213.97 -842.277C-651.676 -707.573 -925.095 -272.965 -856.94 179.984L964.244 -94.049C1031.71 354.349 761.042 784.59 327.734 917.94L-213.97 -842.277ZM-856.967 179.806C-788.877 632.919 -399.594 967.768 58.2498 967.768V-873.917C511.492 -873.917 896.865 -542.434 964.27 -93.8713L-856.967 179.806ZM58.2498 967.768C516.263 967.768 905.291 632.787 973.435 180.015L-847.739 -94.0804C-780.28 -542.302 -395.162 -873.917 58.2498 -873.917V967.768ZM973.471 179.775C1041.49 -272.958 768.251 -707.517 330.529 -842.258L-211.295 917.921C-644.619 784.534 -915.108 354.341 -847.776 -93.8399L973.471 179.775ZM980.46 37.8315V29.2842H-861.225V37.8315H980.46ZM59.6174 950.127H68.7528V-891.558H59.6174V950.127ZM-848.626 109.079L-845.153 149.012L989.605 -10.5774L986.132 -50.5103L-848.626 109.079ZM-844.271 158.569C-869.57 -100.922 -783.186 -358.849 -606.834 -550.74L749.181 695.465C927.097 501.872 1014.25 241.657 988.723 -20.1349L-844.271 158.569ZM-84.1712 953.14C-3.25752 963.929 78.7301 963.929 159.644 953.14L-83.7611 -872.389C-3.11966 -883.142 78.5924 -883.142 159.234 -872.389L-84.1712 953.14ZM-60.7223 955.917C-546.097 903.61 -906.043 480.814 -879.872 -6.95646L959.168 91.7191C985.449 -398.082 624.002 -822.642 136.605 -875.166L-60.7223 955.917ZM-879.847 -7.4126C-853.47 -494.485 -450.882 -876.649 37.7363 -876.649V965.036C528.389 965.036 932.657 581.279 959.144 92.1753L-879.847 -7.4126ZM37.7363 -876.649C526.098 -876.649 929.191 -494.644 955.346 -6.93059L-883.697 91.6933C-857.433 581.439 -452.661 965.036 37.7363 965.036V-876.649ZM955.344 -6.95634C981.505 480.604 621.769 903.617 136.143 955.923L-61.0811 -875.172C-548.73 -822.648 -909.965 -397.872 -883.695 91.719L955.344 -6.95634ZM-63.6577 953.14C17.2559 963.929 99.2436 963.929 180.157 953.14L-63.2476 -872.389C17.3938 -883.142 99.1058 -883.142 179.747 -872.389L-63.6577 953.14ZM-40.2088 955.917C-525.585 903.61 -885.53 480.812 -859.358 -6.95646L979.682 91.7191C1005.96 -398.081 644.517 -822.641 157.119 -875.166L-40.2088 955.917ZM-859.334 -7.4126C-832.957 -494.485 -430.368 -876.649 58.2498 -876.649V965.036C548.902 965.036 953.17 581.279 979.657 92.1753L-859.334 -7.4126ZM58.2498 -876.649C546.613 -876.649 949.704 -494.642 975.859 -6.93059L-863.183 91.6933C-836.919 581.437 -432.149 965.036 58.2498 965.036V-876.649ZM975.858 -6.95634C1002.02 480.603 642.283 903.616 156.657 955.923L-40.5676 -875.172C-528.217 -822.648 -889.451 -397.872 -863.182 91.719L975.858 -6.95634Z" fill="#29A867" mask="url(#path-3-inside-1_1219_1259)"/>
<path d="M47.881 66.4817C46.7544 66.4817 45.7404 66.2886 44.8392 65.9023C43.9379 65.5 43.2297 64.9367 42.7147 64.2124C42.1997 63.4882 41.9422 62.6432 41.9422 61.6776H44.8874C44.9518 62.4018 45.2335 62.9973 45.7324 63.464C46.2474 63.9308 46.9636 64.1641 47.881 64.1641C48.8306 64.1641 49.5709 63.9388 50.102 63.4882C50.6331 63.0214 50.8987 62.426 50.8987 61.7017C50.8987 61.1384 50.7297 60.6797 50.3917 60.3256C50.0698 59.9716 49.6594 59.698 49.1605 59.5048C48.6777 59.3117 48.0017 59.1025 47.1326 58.8771C46.0382 58.5874 45.145 58.2977 44.4529 58.008C43.7769 57.7023 43.1975 57.2355 42.7147 56.6078C42.2319 55.9802 41.9905 55.1432 41.9905 54.0971C41.9905 53.1314 42.2319 52.2865 42.7147 51.5622C43.1975 50.838 43.8735 50.2827 44.7426 49.8965C45.6117 49.5102 46.6176 49.3171 47.7603 49.3171C49.3858 49.3171 50.7136 49.7275 51.7437 50.5483C52.7898 51.353 53.3692 52.4635 53.4818 53.8798H50.44C50.3917 53.2682 50.102 52.7452 49.5709 52.3106C49.0398 51.8761 48.3397 51.6588 47.4706 51.6588C46.682 51.6588 46.0382 51.86 45.5393 52.2623C45.0403 52.6647 44.7909 53.2441 44.7909 54.0005C44.7909 54.5156 44.9438 54.9421 45.2496 55.28C45.5715 55.6019 45.9738 55.8594 46.4566 56.0526C46.9395 56.2457 47.5993 56.4549 48.4363 56.6803C49.5468 56.986 50.4481 57.2918 51.1401 57.5976C51.8483 57.9034 52.4438 58.3782 52.9266 59.022C53.4255 59.6497 53.675 60.4946 53.675 61.5569C53.675 62.4099 53.4416 63.2146 52.9749 63.971C52.5242 64.7274 51.8563 65.339 50.9711 65.8058C50.102 66.2564 49.072 66.4817 47.881 66.4817Z" fill="#29A867"/>
</svg>
